<svg width="200" height="200" viewBox="0 0 200 200" fill="none" xmlns="http://www.w3.org/2000/svg">
<path d="M107.842 182.967C127.156 181.168 145.23 172.662 158.925 158.925C191.467 126.383 191.467 73.6166 158.925 41.075C126.383 8.53328 73.6167 8.53328 41.075 41.075C8.53335 73.6166 8.53335 126.383 41.075 158.925C49.4172 167.285 59.4451 173.772 70.4906 177.954C81.5362 182.135 93.346 183.915 105.133 183.175C106.04 183.306 106.965 183.235 107.842 182.967V182.967ZM29.8083 90.45C31.5903 77.2155 37.0957 64.7597 45.6833 54.5333L91.1667 100L82.1 109.067C73.3333 101.983 63.5667 98.1666 54.2583 95.6666C48.8417 94.2166 43.4583 93.1666 38.5333 92.225L38.4 92.1916C35.3417 91.6083 32.4833 91.05 29.8167 90.45H29.8083ZM29.2333 103.117C31.45 103.583 33.6917 104.017 35.9 104.45L36.0167 104.467C41.0417 105.442 46.0333 106.408 51.0083 107.742C58.95 109.875 66.5167 112.875 73.1917 117.975L45.6917 145.475C35.685 133.557 29.8987 118.665 29.2333 103.117V103.117ZM82.0583 126.783C87.6833 133.967 90.725 141.833 92.8667 149.892C93.9083 153.808 94.7083 157.625 95.5167 161.492L96.2167 164.783C96.6333 166.783 97.0917 168.792 97.5917 170.792C81.7964 170.277 66.6311 164.475 54.525 154.317L82.0583 126.783V126.783ZM110.333 170.083C109.65 167.667 109.05 165.033 108.433 162.167L107.792 159.108C106.975 155.2 106.083 150.942 104.95 146.675C102.442 137.275 98.6 127.2 90.95 117.892L100 108.842L145.475 154.317C135.453 162.734 123.284 168.194 110.333 170.083V170.083ZM108.833 100L118.933 89.9083C128.217 97.7583 137.933 102.075 146.975 105.125C150.7 106.392 154.45 107.475 157.9 108.483C159.225 108.867 160.508 109.233 161.733 109.6C164.65 110.483 167.325 111.333 169.767 112.275C167.634 124.51 162.303 135.964 154.317 145.475L108.833 100ZM165.308 97.625L161.125 96.4C157.722 95.4359 154.341 94.3968 150.983 93.2833C143.117 90.6166 135.25 87.1166 127.808 81.0333L154.308 54.525C164.864 67.0989 170.707 82.9583 170.833 99.375C169 98.75 167.142 98.175 165.308 97.625V97.625ZM145.475 45.6833L118.967 72.1916C112.883 64.75 109.375 56.8833 106.717 49.0166C105.542 45.5583 104.575 42.2333 103.6 38.8666V38.8583C103.183 37.475 102.792 36.0916 102.367 34.6916C101.817 32.8583 101.25 31 100.625 29.1666C117.041 29.2904 132.9 35.1309 145.475 45.6833V45.6833ZM94.8667 53.0166C97.925 62.0583 102.233 71.7833 110.092 81.0666L100 91.1666L54.525 45.6833C64.0362 37.6966 75.4898 32.3665 87.725 30.2333C88.6667 32.675 89.5167 35.3416 90.3917 38.2666L91.5167 42.1C92.5167 45.55 93.6 49.2916 94.8667 53.0166Z" fill="#46009F"/>
</svg>
